<svg xmlns="http://www.w3.org/2000/svg" viewBox="0 0 1200 900">
  <defs>
    <linearGradient id="bgGrad" x1="0%" y1="0%" x2="100%" y2="100%">
      <stop offset="0%" style="stop-color:#1a1a2e"/>
      <stop offset="100%" style="stop-color:#16213e"/>
    </linearGradient>
    <linearGradient id="blueGrad" x1="0%" y1="0%" x2="100%" y2="0%">
      <stop offset="0%" style="stop-color:#4facfe"/>
      <stop offset="100%" style="stop-color:#00f2fe"/>
    </linearGradient>
    <linearGradient id="purpleGrad" x1="0%" y1="0%" x2="100%" y2="0%">
      <stop offset="0%" style="stop-color:#667eea"/>
      <stop offset="100%" style="stop-color:#764ba2"/>
    </linearGradient>
    <linearGradient id="greenGrad" x1="0%" y1="0%" x2="100%" y2="0%">
      <stop offset="0%" style="stop-color:#11998e"/>
      <stop offset="100%" style="stop-color:#38ef7d"/>
    </linearGradient>
    <filter id="shadow" x="-20%" y="-20%" width="140%" height="140%">
      <feDropShadow dx="2" dy="2" stdDeviation="3" flood-opacity="0.3"/>
    </filter>
  </defs>
  
  <rect width="1200" height="900" fill="url(#bgGrad)"/>
  
  <!-- Title -->
  <text x="600" y="40" text-anchor="middle" fill="#fff" font-size="28" font-weight="bold">TradeLab System Architecture</text>
  
  <!-- FRONTEND LAYER -->
  <rect x="20" y="60" width="350" height="200" rx="8" fill="#2d3748" stroke="#4facfe" stroke-width="2" filter="url(#shadow)"/>
  <text x="195" y="85" text-anchor="middle" fill="#4facfe" font-size="16" font-weight="bold">Frontend Layer</text>
  
  <rect x="40" y="100" width="140" height="50" rx="4" fill="#1a365d"/>
  <text x="110" y="130" text-anchor="middle" fill="#fff" font-size="12">Dashboard Page</text>
  
  <rect x="200" y="100" width="140" height="50" rx="4" fill="#1a365d"/>
  <text x="270" y="130" text-anchor="middle" fill="#fff" font-size="12">Decision Page</text>
  
  <rect x="40" y="160" width="140" height="50" rx="4" fill="#1a365d"/>
  <text x="110" y="190" text-anchor="middle" fill="#fff" font-size="12">Risk Panel</text>
  
  <rect x="200" y="160" width="140" height="50" rx="4" fill="#1a365d"/>
  <text x="270" y="190" text-anchor="middle" fill="#fff" font-size="12">Timeline Page</text>
  
  <rect x="40" y="220" width="300" height="30" rx="4" fill="#1e3a5f"/>
  <text x="190" y="240" text-anchor="middle" fill="#4facfe" font-size="11">Realtime Store (Zustand + WS)</text>
  
  <!-- API LAYER -->
  <rect x="400" y="60" width="400" height="200" rx="8" fill="#2d3748" stroke="#667eea" stroke-width="2" filter="url(#shadow)"/>
  <text x="600" y="85" text-anchor="middle" fill="#667eea" font-size="16" font-weight="bold">API Layer (FastAPI)</text>
  
  <rect x="420" y="100" width="80" height="50" rx="4" fill="#1a365d"/>
  <text x="460" y="130" text-anchor="middle" fill="#fff" font-size="11">/dashboard</text>
  
  <rect x="510" y="100" width="80" height="50" rx="4" fill="#1a365d"/>
  <text x="550" y="130" text-anchor="middle" fill="#fff" font-size="11">/projection</text>
  
  <rect x="600" y="100" width="80" height="50" rx="4" fill="#1a365d"/>
  <text x="640" y="130" text-anchor="middle" fill="#fff" font-size="11">/factors</text>
  
  <rect x="690" y="100" width="90" height="50" rx="4" fill="#1a365d"/>
  <text x="735" y="130" text-anchor="middle" fill="#fff" font-size="11">/alpha</text>
  
  <rect x="420" y="160" width="360" height="30" rx="4" fill="#1e3a5f"/>
  <text x="600" y="180" text-anchor="middle" fill="#667eea" font-size="11">Projection Reader + WS Gateway</text>
  
  <rect x="420" y="200" width="180" height="40" rx="4" fill="#1a365d"/>
  <text x="510" y="225" text-anchor="middle" fill="#fff" font-size="11">Redis Pub/Sub</text>
  
  <rect x="620" y="200" width="160" height="40" rx="4" fill="#1a365d"/>
  <text x="700" y="225" text-anchor="middle" fill="#fff" font-size="11">WS /ws</text>
  
  <!-- CONNECTIONS -->
  <path d="M 370 160 L 400 160" stroke="#4facfe" stroke-width="2" fill="none"/>
  <path d="M 800 160 L 830 160" stroke="#667eea" stroke-width="2" fill="none"/>
  <circle cx="830" cy="160" r="4" fill="#667eea"/>
  
  <!-- MIDDLE LAYERS -->
  <rect x="830" y="60" width="170" height="200" rx="8" fill="#2d3748" stroke="#11998e" stroke-width="2" filter="url(#shadow)"/>
  <text x="915" y="85" text-anchor="middle" fill="#11998e" font-size="14" font-weight="bold">Redis</text>
  
  <rect x="850" y="100" width="130" height="25" rx="3" fill="#1a365d"/>
  <text x="915" y="117" text-anchor="middle" fill="#aaa" font-size="9">projection:*:state</text>
  
  <rect x="850" y="130" width="130" height="25" rx="3" fill="#1a365d"/>
  <text x="915" y="147" text-anchor="middle" fill="#aaa" font-size="9">projection:decision:*</text>
  
  <rect x="850" y="160" width="130" height="25" rx="3" fill="#1a365d"/>
  <text x="915" y="177" text-anchor="middle" fill="#aaa" font-size="9">projection:risk:*</text>
  
  <rect x="850" y="190" width="130" height="25" rx="3" fill="#1a365d"/>
  <text x="915" y="207" text-anchor="middle" fill="#aaa" font-size="9">projection:timeline:*</text>
  
  <rect x="850" y="220" width="130" height="25" rx="3" fill="#1a365d"/>
  <text x="915" y="237" text-anchor="middle" fill="#aaa" font-size="9">projection:position:*</text>
  
  <!-- KAFKA -->
  <rect x="1020" y="60" width="160" height="200" rx="8" fill="#2d3748" stroke="#f093fb" stroke-width="2" filter="url(#shadow)"/>
  <text x="1100" y="85" text-anchor="middle" fill="#f093fb" font-size="14" font-weight="bold">Kafka</text>
  
  <rect x="1040" y="100" width="120" height="25" rx="3" fill="#1a365d"/>
  <text x="1100" y="117" text-anchor="middle" fill="#aaa" font-size="9">tradeagent.events.all</text>
  
  <rect x="1040" y="130" width="120" height="25" rx="3" fill="#1a365d"/>
  <text x="1100" y="147" text-anchor="middle" fill="#aaa" font-size="9">tradeagent.decisions</text>
  
  <rect x="1040" y="160" width="120" height="25" rx="3" fill="#1a365d"/>
  <text x="1100" y="177" text-anchor="middle" fill="#aaa" font-size="9">tradeagent.risk</text>
  
  <rect x="1040" y="190" width="120" height="25" rx="3" fill="#1a365d"/>
  <text x="1100" y="207" text-anchor="middle" fill="#aaa" font-size="9">tradeagent.orders</text>
  
  <!-- PROJECTION WORKER -->
  <rect x="20" y="280" width="560" height="180" rx="8" fill="#2d3748" stroke="#4facfe" stroke-width="2" filter="url(#shadow)"/>
  <text x="300" y="305" text-anchor="middle" fill="#4facfe" font-size="16" font-weight="bold">Projection Worker</text>
  
  <rect x="40" y="315" width="520" height="30" rx="4" fill="#1e3a5f"/>
  <text x="300" y="335" text-anchor="middle" fill="#667eea" font-size="11">Schema Validation Layer (BaseEventV2 + Schema Registry)</text>
  
  <rect x="40" y="355" width="120" height="50" rx="4" fill="#1a365d"/>
  <text x="100" y="385" text-anchor="middle" fill="#fff" font-size="11">Dashboard</text>
  
  <rect x="170" y="355" width="120" height="50" rx="4" fill="#1a365d"/>
  <text x="230" y="385" text-anchor="middle" fill="#fff" font-size="11">Decision</text>
  
  <rect x="300" y="355" width="120" height="50" rx="4" fill="#1a365d"/>
  <text x="360" y="385" text-anchor="middle" fill="#fff" font-size="11">Risk</text>
  
  <rect x="430" y="355" width="130" height="50" rx="4" fill="#1a365d"/>
  <text x="495" y="385" text-anchor="middle" fill="#fff" font-size="11">Event Timeline</text>
  
  <rect x="40" y="415" width="120" height="30" rx="3" fill="#1a365d"/>
  <text x="100" y="435" text-anchor="middle" fill="#aaa" font-size="9">Position</text>
  
  <rect x="170" y="415" width="120" height="30" rx="3" fill="#1a365d"/>
  <text x="230" y="435" text-anchor="middle" fill="#aaa" font-size="9">Portfolio</text>
  
  <!-- RUNTIME DOMAIN -->
  <rect x="600" y="280" width="580" height="180" rx="8" fill="#2d3748" stroke="#38ef7d" stroke-width="2" filter="url(#shadow)"/>
  <text x="890" y="305" text-anchor="middle" fill="#38ef7d" font-size="16" font-weight="bold">Runtime Domain</text>
  
  <!-- Multi-Timeframe -->
  <rect x="620" y="315" width="260" height="80" rx="4" fill="#1a365d"/>
  <text x="750" y="335" text-anchor="middle" fill="#4facfe" font-size="11" font-weight="bold">Multi-Timeframe Coordinator</text>
  
  <rect x="640" y="345" width="40" height="40" rx="3" fill="#1e3a5f"/>
  <text x="660" y="370" text-anchor="middle" fill="#aaa" font-size="8">1D</text>
  
  <rect x="685" y="345" width="40" height="40" rx="3" fill="#1e3a5f"/>
  <text x="705" y="370" text-anchor="middle" fill="#aaa" font-size="8">4H</text>
  
  <rect x="730" y="345" width="40" height="40" rx="3" fill="#1e3a5f"/>
  <text x="750" y="370" text-anchor="middle" fill="#aaa" font-size="8">1H</text>
  
  <rect x="775" y="345" width="40" height="40" rx="3" fill="#1e3a5f"/>
  <text x="795" y="370" text-anchor="middle" fill="#aaa" font-size="8">15M</text>
  
  <rect x="825" y="345" width="45" height="40" rx="3" fill="#11998e"/>
  <text x="847" y="370" text-anchor="middle" fill="#fff" font-size="8">Align</text>
  
  <!-- Core Components -->
  <rect x="620" y="405" width="130" height="40" rx="4" fill="#1a365d"/>
  <text x="685" y="430" text-anchor="middle" fill="#fff" font-size="10">Validation Boundary</text>
  
  <rect x="760" y="405" width="130" height="40" rx="4" fill="#1a365d"/>
  <text x="825" y="430" text-anchor="middle" fill="#fff" font-size="10">Replay Engine</text>
  
  <rect x="900" y="405" width="130" height="40" rx="4" fill="#1a365d"/>
  <text x="965" y="430" text-anchor="middle" fill="#fff" font-size="10">Narrative Engine</text>
  
  <rect x="1040" y="405" width="130" height="40" rx="4" fill="#1a365d"/>
  <text x="1105" y="430" text-anchor="middle" fill="#fff" font-size="10">Observability</text>
  
  <!-- WORKER RUNTIMES -->
  <rect x="20" y="480" width="1160" height="100" rx="8" fill="#2d3748" stroke="#f093fb" stroke-width="2" filter="url(#shadow)"/>
  <text x="600" y="505" text-anchor="middle" fill="#f093fb" font-size="16" font-weight="bold">Worker Runtimes</text>
  
  <rect x="50" y="520" width="250" height="45" rx="4" fill="#1a365d"/>
  <text x="175" y="540" text-anchor="middle" fill="#4facfe" font-size="11" font-weight="bold">Data Worker</text>
  <text x="175" y="555" text-anchor="middle" fill="#aaa" font-size="9">News • Prices • Social</text>
  
  <rect x="320" y="520" width="250" height="45" rx="4" fill="#1a365d"/>
  <text x="445" y="540" text-anchor="middle" fill="#667eea" font-size="11" font-weight="bold">Strategy Worker</text>
  <text x="445" y="555" text-anchor="middle" fill="#aaa" font-size="9">Signals • Decisions • Alpha</text>
  
  <rect x="590" y="520" width="250" height="45" rx="4" fill="#1a365d"/>
  <text x="715" y="540" text-anchor="middle" fill="#11998e" font-size="11" font-weight="bold">Execution Worker</text>
  <text x="715" y="555" text-anchor="middle" fill="#aaa" font-size="9">Risk Check • Orders • Fills</text>
  
  <rect x="860" y="520" width="300" height="45" rx="4" fill="#1a365d"/>
  <text x="1010" y="540" text-anchor="middle" fill="#f093fb" font-size="11" font-weight="bold">Research System</text>
  <text x="1010" y="555" text-anchor="middle" fill="#aaa" font-size="9">Alpha • Walk Forward • Proposals</text>
  
  <!-- RESEARCH DOMAIN -->
  <rect x="20" y="600" width="1160" height="80" rx="8" fill="#2d3748" stroke="#764ba2" stroke-width="2" filter="url(#shadow)"/>
  <text x="600" y="625" text-anchor="middle" fill="#764ba2" font-size="16" font-weight="bold">Research Domain → Validation Boundary → Runtime</text>
  
  <rect x="50" y="640" width="180" height="30" rx="3" fill="#1a365d"/>
  <text x="140" y="660" text-anchor="middle" fill="#aaa" font-size="10">Factor Generator</text>
  
  <rect x="250" y="640" width="180" height="30" rx="3" fill="#1a365d"/>
  <text x="340" y="660" text-anchor="middle" fill="#aaa" font-size="10">Alpha Lifecycle</text>
  
  <rect x="450" y="640" width="180" height="30" rx="3" fill="#1a365d"/>
  <text x="540" y="660" text-anchor="middle" fill="#aaa" font-size="10">Walk Forward</text>
  
  <rect x="650" y="640" width="180" height="30" rx="3" fill="#1a365d"/>
  <text x="740" y="660" text-anchor="middle" fill="#4facfe" font-size="10">Validation Boundary</text>
  
  <rect x="850" y="640" width="180" height="30" rx="3" fill="#1a365d"/>
  <text x="940" y="660" text-anchor="middle" fill="#11998e" font-size="10">Approved Signals</text>
  
  <rect x="1050" y="640" width="110" height="30" rx="3" fill="#1a365d"/>
  <text x="1105" y="660" text-anchor="middle" fill="#667eea" font-size="10">Runtime</text>
  
  <!-- INFRASTRUCTURE -->
  <rect x="20" y="700" width="1160" height="80" rx="8" fill="#2d3748" stroke="#aaa" stroke-width="1" filter="url(#shadow)"/>
  <text x="600" y="725" text-anchor="middle" fill="#aaa" font-size="14" font-weight="bold">Infrastructure</text>
  
  <rect x="50" y="740" width="200" height="30" rx="3" fill="#1a365d"/>
  <text x="150" y="760" text-anchor="middle" fill="#fff" font-size="10">Docker Compose</text>
  
  <rect x="270" y="740" width="200" height="30" rx="3" fill="#1a365d"/>
  <text x="370" y="760" text-anchor="middle" fill="#fff" font-size="10">Prometheus + Grafana</text>
  
  <rect x="490" y="740" width="200" height="30" rx="3" fill="#1a365d"/>
  <text x="590" y="760" text-anchor="middle" fill="#fff" font-size="10">ClickHouse</text>
  
  <rect x="710" y="740" width="200" height="30" rx="3" fill="#1a365d"/>
  <text x="810" y="760" text-anchor="middle" fill="#fff" font-size="10">Jaeger (Tracing)</text>
  
  <rect x="930" y="740" width="230" height="30" rx="3" fill="#1a365d"/>
  <text x="1045" y="760" text-anchor="middle" fill="#fff" font-size="10">Next.js + Zustand</text>
  
  <!-- DATA FLOW ARROWS -->
  <path d="M 195 260 L 195 280" stroke="#4facfe" stroke-width="2" fill="none" marker-end="url(#arrowBlue)"/>
  <path d="M 600 260 L 600 280" stroke="#667eea" stroke-width="2" fill="none"/>
  <path d="M 890 260 L 890 280" stroke="#11998e" stroke-width="2" fill="none"/>
  <path d="M 300 460 L 300 480" stroke="#f093fb" stroke-width="2" fill="none"/>
  <path d="M 890 460 L 890 480" stroke="#f093fb" stroke-width="2" fill="none"/>
  
  <!-- LEGEND -->
  <rect x="20" y="800" width="1160" height="80" rx="6" fill="#1a1a2e" stroke="#444" stroke-width="1"/>
  <text x="600" y="820" text-anchor="middle" fill="#fff" font-size="12" font-weight="bold">Legend</text>
  
  <rect x="50" y="835" width="15" height="15" rx="2" fill="#4facfe"/>
  <text x="75" y="847" fill="#aaa" font-size="10">Frontend / Data</text>
  
  <rect x="200" y="835" width="15" height="15" rx="2" fill="#667eea"/>
  <text x="225" y="847" fill="#aaa" font-size="10">API / Strategy</text>
  
  <rect x="350" y="835" width="15" height="15" rx="2" fill="#11998e"/>
  <text x="375" y="847" fill="#aaa" font-size="10">State / Risk</text>
  
  <rect x="500" y="835" width="15" height="15" rx="2" fill="#38ef7d"/>
  <text x="525" y="847" fill="#aaa" font-size="10">Runtime / Coordinator</text>
  
  <rect x="650" y="835" width="15" height="15" rx="2" fill="#f093fb"/>
  <text x="675" y="847" fill="#aaa" font-size="10">Workers / Kafka</text>
  
  <rect x="800" y="835" width="15" height="15" rx="2" fill="#764ba2"/>
  <text x="825" y="847" fill="#aaa" font-size="10">Research</text>
</svg>
